<svg xmlns="http://www.w3.org/2000/svg" xmlns:xlink="http://www.w3.org/1999/xlink" width="500" zoomAndPan="magnify" viewBox="0 0 375 374.999991" height="500" preserveAspectRatio="xMidYMid meet" version="1.0"><defs><clipPath id="a7bfe1e64d"><path d="M 156 13.789062 L 243 13.789062 L 243 156 L 156 156 Z M 156 13.789062 " clip-rule="nonzero"/></clipPath></defs><path fill="#4e7896" d="M 156.382812 200.714844 C 156.382812 200.714844 147.105469 206.363281 162.839844 207.976562 C 181.84375 210.398438 191.890625 209.992188 212.871094 205.960938 C 212.871094 205.960938 218.515625 209.597656 226.183594 212.417969 C 178.972656 232.589844 119.261719 211.207031 156.382812 200.714844 Z M 150.332031 174.488281 C 150.332031 174.488281 140.242188 182.15625 155.980469 183.769531 C 176.550781 185.785156 192.695312 186.191406 220.539062 180.546875 C 220.539062 180.546875 224.171875 184.582031 230.222656 186.597656 C 173.335938 203.546875 109.582031 188.210938 150.332031 174.492188 Z M 261.691406 220.488281 C 261.691406 220.488281 268.550781 226.132812 254.027344 230.574219 C 226.992188 238.644531 140.648438 241.070312 116.4375 230.574219 C 107.96875 226.941406 124.105469 221.695312 129.347656 220.890625 C 134.59375 219.679688 137.417969 219.679688 137.417969 219.679688 C 128.136719 213.222656 75.683594 232.996094 110.789062 238.683594 C 207.21875 254.425781 286.707031 231.828125 261.6875 220.527344 Z M 160.820312 147.050781 C 160.820312 147.050781 116.839844 157.542969 145.082031 161.171875 C 157.183594 162.78125 180.988281 162.382812 203.183594 160.765625 C 221.339844 159.15625 239.539062 155.925781 239.539062 155.925781 C 239.539062 155.925781 233.082031 158.75 228.644531 161.570312 C 183.820312 173.285156 97.878906 168.035156 122.492188 155.933594 C 143.476562 145.84375 160.820312 147.050781 160.820312 147.050781 Z M 239.496094 191.03125 C 284.691406 167.628906 263.703125 145.035156 249.179688 147.859375 C 245.542969 148.664062 243.933594 149.472656 243.933594 149.472656 C 243.933594 149.472656 245.144531 147.050781 247.96875 146.25 C 276.613281 136.160156 299.214844 176.511719 238.691406 192.246094 C 238.691406 192.246094 239.09375 191.839844 239.496094 191.035156 Z M 165.257812 254.777344 C 208.832031 257.601562 275.410156 253.164062 277.023438 232.582031 C 277.023438 232.582031 273.800781 240.652344 241.117188 246.703125 C 203.996094 253.5625 157.996094 252.757812 130.964844 248.316406 C 130.964844 248.316406 136.613281 253.15625 165.261719 254.773438 Z M 165.257812 254.777344 " fill-opacity="1" fill-rule="nonzero"/><g clip-path="url(#a7bfe1e64d)"><path fill="#f58219" d="M 212.023438 13.902344 C 212.023438 13.902344 237.039062 39.320312 188.21875 77.644531 C 149.078125 108.710938 179.335938 126.46875 188.21875 146.636719 C 165.21875 126.0625 148.683594 107.902344 159.972656 90.957031 C 176.554688 65.953125 222.144531 53.851562 212.023438 13.902344 Z M 199.113281 129.699219 C 210.8125 143.015625 195.890625 155.117188 195.890625 155.117188 C 195.890625 155.117188 225.746094 139.792969 212.03125 120.820312 C 199.523438 102.664062 189.839844 93.785156 242.292969 63.519531 C 242.292969 63.519531 159.578125 84.09375 199.121094 129.691406 Z M 199.113281 129.699219 " fill-opacity="1" fill-rule="nonzero"/></g><path fill="#4e7896" d="M 178.292969 341.15625 L 178.292969 301.621094 C 178.292969 291.53125 172.644531 284.675781 158.519531 284.675781 C 150.453125 284.675781 143.589844 286.691406 137.53125 289.109375 L 139.550781 296.375 C 143.984375 294.761719 149.636719 293.152344 155.691406 293.152344 C 163.355469 293.152344 166.988281 296.375 166.988281 302.835938 L 166.988281 308.082031 L 162.953125 308.082031 C 143.585938 308.082031 134.707031 315.34375 134.707031 327.085938 C 134.707031 336.769531 140.757812 342.414062 151.652344 342.414062 C 158.511719 342.414062 163.757812 339.191406 168.601562 335.148438 L 169.40625 341.203125 L 178.289062 341.203125 Z M 166.992188 328.246094 C 162.957031 331.882812 158.523438 333.894531 154.484375 333.894531 C 149.238281 333.894531 146.015625 330.671875 146.015625 325.011719 C 146.015625 319.351562 149.238281 315.328125 162.15625 315.328125 L 166.992188 315.328125 Z M 216.214844 341.15625 L 202.097656 341.15625 L 185.148438 285.878906 L 197.253906 285.878906 L 207.746094 319.773438 L 210.167969 329.863281 C 215.414062 315.335938 219.445312 300.40625 221.0625 285.878906 L 233.167969 285.878906 C 229.945312 304.039062 224.285156 323.804688 216.21875 341.15625 Z M 281.582031 341.15625 L 281.582031 301.621094 C 281.582031 291.53125 275.933594 284.675781 261.808594 284.675781 C 253.742188 284.675781 246.878906 286.691406 240.820312 289.109375 L 242.433594 296.375 C 247.273438 294.761719 252.925781 293.152344 258.976562 293.152344 C 266.640625 293.152344 270.273438 296.375 270.273438 302.835938 L 270.273438 308.082031 L 266.238281 308.082031 C 246.871094 308.082031 237.992188 315.34375 237.992188 327.085938 C 237.992188 336.769531 243.640625 342.414062 254.535156 342.414062 C 261.796875 342.414062 267.042969 339.191406 271.886719 335.148438 L 272.691406 341.203125 L 281.574219 341.203125 Z M 270.28125 328.246094 C 266.246094 331.882812 261.8125 333.894531 257.773438 333.894531 C 252.527344 333.894531 249.304688 330.671875 249.304688 325.011719 C 249.304688 319.351562 252.527344 315.328125 265.445312 315.328125 L 270.285156 315.328125 L 270.285156 328.238281 Z M 122.210938 350.429688 C 118.988281 355.273438 114.140625 358.898438 108.089844 360.925781 L 102.84375 354.46875 C 106.878906 352.046875 110.910156 348.414062 112.527344 345.1875 C 114.136719 342.363281 114.542969 338.332031 114.542969 329.046875 L 114.542969 266.113281 L 126.648438 266.113281 L 126.648438 328.246094 C 126.648438 340.753906 125.4375 345.597656 122.210938 350.4375 Z M 122.210938 350.429688 " fill-opacity="1" fill-rule="nonzero"/></svg>